<svg width="24" height="24" viewBox="0 0 24 24" fill="none" xmlns="http://www.w3.org/2000/svg">
<path d="M18.0514 1.01681C18.0804 0.957468 18.0299 0.891374 17.9647 0.901827C17.1667 1.02998 16.9513 0.351562 15.9938 0.351562C14.9753 0.351562 14.9753 0.914061 13.9568 0.914061C12.9383 0.914061 12.9383 0.351562 11.9199 0.351562C10.9013 0.351562 10.9013 0.914061 9.88269 0.914061C8.9803 0.914061 8.87736 0.619734 8.15732 0.552609C8.01458 0.539296 7.90996 0.684468 7.96808 0.81553L10.387 6.08263H15.4892L18.0514 1.01681Z" fill="#BFAB92"/>
<path d="M10.4793 7.65692H15.3968C18.4715 8.68489 20.6877 11.5876 20.6877 15.0081V20.0992C20.6877 22.0593 19.0987 23.6484 17.1385 23.6484H8.73764C6.77748 23.6484 5.18842 22.0593 5.18842 20.0992V15.0081C5.18842 11.5876 7.40457 8.68489 10.4793 7.65692Z" fill="#BFAB92"/>
<path d="M12.9714 7.65692H15.3968C18.4715 8.68489 20.6877 11.5876 20.6877 15.0081V20.0992C20.6877 22.0593 19.0987 23.6484 17.1385 23.6484H12.9714V7.65692Z" fill="#B39A7C"/>
<path d="M12.9854 0.658734C12.7141 0.51 12.4605 0.351562 11.9199 0.351562C10.9013 0.351562 10.9013 0.914061 9.88275 0.914061C8.98036 0.914061 8.87743 0.619734 8.15738 0.552609C8.01465 0.539296 7.91002 0.684468 7.96815 0.81553L10.3871 6.08263H12.9855L12.9854 0.658734Z" fill="#B39A7C"/>
<path d="M10.6056 2.29789L11.7866 6.18616L12.4594 5.98182L11.2784 2.09355L10.6056 2.29789Z" fill="#5E4C36"/>
<path d="M13.2024 5.99295L13.8822 6.17303L14.7036 3.07252L14.0238 2.89243L13.2024 5.99295Z" fill="#5E4C36"/>
<path d="M18.5127 12.1445C17.9665 11.1162 17.1476 10.2592 16.1445 9.66593L16.5025 9.06073C17.6169 9.71988 18.5267 10.6721 19.1336 11.8146L18.5127 12.1445Z" fill="#5E4C36"/>
<path d="M19.075 13.6343C18.9862 13.2607 18.8621 12.8933 18.7064 12.5425L19.349 12.2571C19.5223 12.6475 19.6603 13.0561 19.7591 13.4718L19.075 13.6343Z" fill="#5E4C36"/>
<path d="M8.8021 22.872C7.70246 22.8236 6.71794 22.1786 6.23279 21.1884L6.86419 20.879C7.2361 21.638 7.99046 22.1325 8.83294 22.1695L8.8021 22.872Z" fill="#5E4C36"/>
<path d="M10.387 6.08258V7.65692H10.4794H15.3969H15.4892V6.08258H10.387Z" fill="#FFEB9A"/>
<path d="M12.938 19.2876C15.1067 19.2876 16.8647 17.5296 16.8647 15.3609C16.8647 13.1923 15.1067 11.4342 12.938 11.4342C10.7693 11.4342 9.01129 13.1923 9.01129 15.3609C9.01129 17.5296 10.7693 19.2876 12.938 19.2876Z" fill="#65C27C"/>
<path d="M12.8612 11.4359C10.7281 11.477 9.01123 13.2178 9.01123 15.3607C9.01123 17.5037 10.7281 19.2445 12.8612 19.2856V11.4359Z" fill="#40A559"/>
<path d="M15.8407 7.44294V6.16649L18.3652 1.17548L18.3675 1.17084C18.4332 1.03608 18.4251 0.879842 18.3457 0.752905C18.266 0.625311 18.1286 0.54914 17.9784 0.54914C17.9553 0.54914 17.932 0.551015 17.909 0.554671C17.8608 0.562452 17.8142 0.566343 17.7703 0.566343C17.5637 0.566343 17.4099 0.479952 17.1972 0.360327C16.9117 0.199781 16.5564 0 15.9938 0C15.394 0 15.0813 0.172687 14.8054 0.325078C14.5652 0.457733 14.3754 0.562499 13.9568 0.562499C13.5382 0.562499 13.3485 0.457733 13.1083 0.325078C12.8325 0.172687 12.5198 0 11.9199 0C11.32 0 11.0073 0.172687 10.7314 0.325078C10.4911 0.457733 10.3014 0.562499 9.88269 0.562499C9.43606 0.562499 9.22728 0.485624 8.98555 0.396655C8.78108 0.321374 8.54933 0.236062 8.18999 0.202546C7.98524 0.183515 7.79671 0.277874 7.68754 0.445734C7.58774 0.599155 7.57246 0.790686 7.64858 0.962248L10.0354 6.1595V7.44299C6.91157 8.63956 4.83679 11.6361 4.83679 15.0082V20.0992C4.83679 22.2501 6.58668 24 8.73758 24H17.1385C19.2894 24 21.0392 22.2501 21.0392 20.0992V15.0081C21.0393 11.636 18.9645 8.63951 15.8407 7.44294ZM10.7386 6.43414H15.1376V7.30536H10.7386V6.43414ZM8.74264 1.05647C9.00894 1.15448 9.31072 1.26562 9.88269 1.26562C10.4826 1.26562 10.7953 1.09294 11.0712 0.940545C11.3115 0.807889 11.5012 0.703124 11.9199 0.703124C12.3385 0.703124 12.5282 0.807889 12.7684 0.940545C13.0443 1.09289 13.357 1.26562 13.9568 1.26562C14.5567 1.26562 14.8694 1.09294 15.1453 0.940545C15.3855 0.807889 15.5752 0.703124 15.9938 0.703124C16.3722 0.703124 16.5948 0.82828 16.8526 0.973217C17.048 1.08309 17.264 1.20459 17.5393 1.25053L15.273 5.73102H10.6124L8.4171 0.950858C8.534 0.979639 8.63403 1.01648 8.74264 1.05647ZM20.3362 20.0992C20.3362 21.8624 18.9017 23.2968 17.1385 23.2968H8.73768C6.97448 23.2968 5.54001 21.8624 5.54001 20.0992V15.0081C5.54001 11.8394 7.54579 9.03373 10.5373 8.00848H15.339C18.3304 9.03378 20.3362 11.8394 20.3362 15.0081L20.3362 20.0992Z" fill="black"/>
<path d="M12.9381 11.0823C10.579 11.0823 8.65973 13.0016 8.65973 15.3607C8.65973 17.7198 10.579 19.6391 12.9381 19.6391C15.2972 19.6391 17.2165 17.7198 17.2165 15.3607C17.2165 13.0016 15.2972 11.0823 12.9381 11.0823ZM12.9381 18.936C10.9667 18.936 9.36285 17.3321 9.36285 15.3607C9.36285 13.3894 10.9667 11.7855 12.9381 11.7855C14.9095 11.7855 16.5133 13.3894 16.5133 15.3607C16.5133 17.3321 14.9095 18.936 12.9381 18.936Z" fill="black"/>
<path d="M14.28 15.4606C14.1572 15.3608 14.0074 15.2776 13.8306 15.2109C13.6674 15.1495 13.4865 15.0918 13.2896 15.0374V13.9353C13.3025 13.9382 13.3154 13.9406 13.3282 13.944C13.4571 13.9773 13.5768 14.0179 13.6871 14.0657C13.7973 14.1136 13.8909 14.1624 13.9679 14.2124C14.0448 14.2623 14.0979 14.3019 14.1271 14.331L14.5078 13.6319C14.3122 13.4988 14.0834 13.3833 13.8213 13.2855C13.6542 13.2233 13.477 13.181 13.2896 13.1584V12.4545H12.5865V13.1692C12.4983 13.1839 12.4125 13.2038 12.3296 13.2294C12.1339 13.2897 11.9623 13.3782 11.8147 13.4946C11.6669 13.6112 11.5515 13.7567 11.4683 13.9315C11.385 14.1062 11.3434 14.306 11.3434 14.5307C11.3434 14.7014 11.3694 14.848 11.4215 14.9707C11.4735 15.0935 11.5515 15.2017 11.6555 15.2953C11.7595 15.3889 11.8896 15.4701 12.0456 15.5387C12.1988 15.6061 12.3793 15.6684 12.5866 15.7257V16.8264C12.5696 16.8226 12.5524 16.8194 12.5356 16.8151C12.3733 16.7735 12.2255 16.7225 12.0924 16.6621C11.9592 16.6019 11.8437 16.5415 11.746 16.4812C11.6482 16.4209 11.5806 16.3719 11.5431 16.3345L11.1624 17.0772C11.4204 17.2604 11.7116 17.4018 12.0362 17.5016C12.2183 17.5576 12.4018 17.5974 12.5865 17.622V18.3445H13.2896V17.6378C13.4106 17.6261 13.5288 17.6074 13.6434 17.5797C13.841 17.5319 14.0157 17.4559 14.1677 17.3519C14.3195 17.2479 14.4402 17.1116 14.5297 16.9431C14.6192 16.7746 14.6639 16.5717 14.6639 16.3345C14.6639 16.1307 14.6305 15.9591 14.564 15.8196C14.4974 15.6801 14.4026 15.5605 14.28 15.4606ZM12.4856 14.7803C12.4023 14.7345 12.3389 14.6815 12.2952 14.6211C12.2516 14.5608 12.2297 14.4849 12.2297 14.3933C12.2297 14.2352 12.2879 14.1124 12.4045 14.0251C12.454 13.9879 12.5151 13.9592 12.5865 13.9378V14.8286C12.5503 14.813 12.516 14.797 12.4856 14.7803ZM13.2896 16.8591V15.9403C13.3416 15.9606 13.3903 15.9817 13.4343 16.0036C13.5342 16.0536 13.6111 16.1119 13.6652 16.1784C13.7193 16.245 13.7464 16.3261 13.7464 16.4218C13.7464 16.6651 13.5939 16.8106 13.2896 16.8591Z" fill="black"/>
<path d="M4.22513 7.30277L5.41034 8.48798L5.90752 7.9908L4.72231 6.80559L4.22513 7.30277Z" fill="black"/>
<path d="M6.38657 5.78356L6.96466 7.35675L7.62457 7.11426L7.04648 5.54107L6.38657 5.78356Z" fill="black"/>
<path d="M4.7765 9.5447L3.20331 8.96661L2.96082 9.62652L4.53401 10.2046L4.7765 9.5447Z" fill="black"/>
</svg>
