<svg width="40" height="40" viewBox="0 0 40 40" fill="none" xmlns="http://www.w3.org/2000/svg">
<g clip-path="url(#clip0_1815_5208)">
<path d="M38.0175 38.5064H23.1979C22.4277 38.5064 21.8034 37.882 21.8034 37.1119V22.2922C21.8034 21.522 22.4278 20.8977 23.1979 20.8977H38.0176C38.7877 20.8977 39.412 21.5221 39.412 22.2922V37.1119C39.412 37.882 38.7877 38.5064 38.0175 38.5064Z" fill="#E0E0E2"/>
<path d="M30.5761 20.8977H23.1979C22.4277 20.8977 21.8034 21.5221 21.8034 22.2922V37.1119C21.8034 37.882 22.4278 38.5064 23.1979 38.5064H30.5761V20.8977Z" fill="#C6C5CB"/>
<path d="M30.6076 32.9222C32.3861 32.9222 33.8278 31.4804 33.8278 29.7019C33.8278 27.9234 32.3861 26.4817 30.6076 26.4817C28.8291 26.4817 27.3873 27.9234 27.3873 29.7019C27.3873 31.4804 28.8291 32.9222 30.6076 32.9222Z" fill="#FF3502"/>
<path d="M29.7508 29.702C29.7508 28.3407 30.5958 27.1775 31.7894 26.7062C31.4234 26.5617 31.0251 26.4814 30.6076 26.4814C28.829 26.4814 27.3871 27.9233 27.3871 29.7019C27.3871 31.4805 28.829 32.9224 30.6076 32.9224C31.025 32.9224 31.4234 32.8422 31.7894 32.6976C30.5958 32.2264 29.7508 31.0633 29.7508 29.702Z" fill="#CD2A01"/>
<path d="M27.41 20.8975H12.5902C11.8201 20.8975 11.1957 20.2731 11.1957 19.503V4.68327C11.1957 3.91312 11.8201 3.28882 12.5902 3.28882H27.4099C28.1801 3.28882 28.8044 3.91319 28.8044 4.68327V19.503C28.8044 20.2731 28.1801 20.8975 27.41 20.8975Z" fill="#E0E0E2"/>
<path d="M16.8023 38.5062H1.98259C1.21243 38.5062 0.588135 37.8818 0.588135 37.1116V22.2919C0.588135 21.5218 1.21251 20.8975 1.98259 20.8975H16.8023C17.5725 20.8975 18.1968 21.5218 18.1968 22.2919V37.1116C18.1968 37.8818 17.5725 38.5062 16.8023 38.5062Z" fill="#E0E0E2"/>
<path d="M9.36081 20.8977H1.98259C1.21243 20.8977 0.588135 21.5221 0.588135 22.2922V37.1119C0.588135 37.882 1.21251 38.5064 1.98259 38.5064H9.36081V20.8977Z" fill="#C6C5CB"/>
<path d="M19.9685 3.28882H12.5903C11.8201 3.28882 11.1957 3.91319 11.1957 4.68327V19.503C11.1957 20.2731 11.8201 20.8975 12.5903 20.8975H19.9685V3.28882Z" fill="#C6C5CB"/>
<path d="M15.9122 9.6743C16.8335 9.6743 17.5804 8.92742 17.5804 8.0061C17.5804 7.08477 16.8335 6.33789 15.9122 6.33789C14.9909 6.33789 14.244 7.08477 14.244 8.0061C14.244 8.92742 14.9909 9.6743 15.9122 9.6743Z" fill="#FF3502"/>
<path d="M19.9996 13.761C20.921 13.761 21.6678 13.0141 21.6678 12.0928C21.6678 11.1714 20.921 10.4246 19.9996 10.4246C19.0783 10.4246 18.3314 11.1714 18.3314 12.0928C18.3314 13.0141 19.0783 13.761 19.9996 13.761Z" fill="#FF3502"/>
<path d="M24.087 17.8484C25.0084 17.8484 25.7552 17.1015 25.7552 16.1802C25.7552 15.2588 25.0084 14.512 24.087 14.512C23.1657 14.512 22.4188 15.2588 22.4188 16.1802C22.4188 17.1015 23.1657 17.8484 24.087 17.8484Z" fill="#FF3502"/>
<path d="M5.73242 27.855C6.65374 27.855 7.40062 27.1081 7.40062 26.1868C7.40062 25.2654 6.65374 24.5186 5.73242 24.5186C4.81109 24.5186 4.06421 25.2654 4.06421 26.1868C4.06421 27.1081 4.81109 27.855 5.73242 27.855Z" fill="#FF3502"/>
<path d="M13.0519 27.855C13.9732 27.855 14.7201 27.1081 14.7201 26.1868C14.7201 25.2654 13.9732 24.5186 13.0519 24.5186C12.1305 24.5186 11.3837 25.2654 11.3837 26.1868C11.3837 27.1081 12.1305 27.855 13.0519 27.855Z" fill="#FF3502"/>
<path d="M5.73242 34.8857C6.65374 34.8857 7.40062 34.1388 7.40062 33.2175C7.40062 32.2962 6.65374 31.5493 5.73242 31.5493C4.81109 31.5493 4.06421 32.2962 4.06421 33.2175C4.06421 34.1388 4.81109 34.8857 5.73242 34.8857Z" fill="#FF3502"/>
<path d="M13.0519 34.8857C13.9732 34.8857 14.7201 34.1388 14.7201 33.2175C14.7201 32.2962 13.9732 31.5493 13.0519 31.5493C12.1305 31.5493 11.3837 32.2962 11.3837 33.2175C11.3837 34.1388 12.1305 34.8857 13.0519 34.8857Z" fill="#FF3502"/>
<path d="M15.468 8.00573C15.468 7.30096 15.9055 6.69877 16.5235 6.45471C16.334 6.37994 16.1278 6.33838 15.9117 6.33838C14.9908 6.33838 14.2444 7.08494 14.2444 8.00573C14.2444 8.92651 14.9909 9.67307 15.9117 9.67307C16.1278 9.67307 16.3342 9.63151 16.5235 9.55674C15.9056 9.31268 15.468 8.71049 15.468 8.00573Z" fill="#CD2A01"/>
<path d="M19.5553 12.0931C19.5553 11.3884 19.9928 10.7862 20.6109 10.5421C20.4213 10.4673 20.2152 10.4258 19.9991 10.4258C19.0781 10.4258 18.3317 11.1723 18.3317 12.0931C18.3317 13.014 19.0783 13.7605 19.9991 13.7605C20.2152 13.7605 20.4215 13.7189 20.6109 13.6441C19.9929 13.4002 19.5553 12.7979 19.5553 12.0931Z" fill="#CD2A01"/>
<path d="M23.6426 16.1803C23.6426 15.4755 24.0801 14.8733 24.6981 14.6293C24.5086 14.5545 24.3024 14.5129 24.0864 14.5129C23.1654 14.5129 22.419 15.2595 22.419 16.1803C22.419 17.1011 23.1656 17.8476 24.0864 17.8476C24.3024 17.8476 24.5088 17.8061 24.6981 17.7313C24.0802 17.4872 23.6426 16.8851 23.6426 16.1803Z" fill="#CD2A01"/>
<path d="M12.6076 26.1864C12.6076 25.4816 13.0451 24.8794 13.6631 24.6354C13.4736 24.5606 13.2674 24.519 13.0513 24.519C12.1304 24.519 11.384 25.2656 11.384 26.1864C11.384 27.1073 12.1305 27.8537 13.0513 27.8537C13.2674 27.8537 13.4737 27.8122 13.6631 27.7374C13.0451 27.4933 12.6076 26.8912 12.6076 26.1864Z" fill="#CD2A01"/>
<path d="M5.28811 26.1864C5.28811 25.4816 5.72561 24.8794 6.34366 24.6354C6.15413 24.5606 5.94796 24.519 5.73186 24.519C4.81092 24.519 4.06451 25.2656 4.06451 26.1864C4.06451 27.1073 4.81108 27.8537 5.73186 27.8537C5.94796 27.8537 6.15428 27.8122 6.34366 27.7374C5.72561 27.4933 5.28811 26.8912 5.28811 26.1864Z" fill="#CD2A01"/>
<path d="M12.6076 33.2174C12.6076 32.5126 13.0451 31.9104 13.6631 31.6664C13.4736 31.5916 13.2674 31.55 13.0513 31.55C12.1304 31.55 11.384 32.2966 11.384 33.2174C11.384 34.1383 12.1305 34.8847 13.0513 34.8847C13.2674 34.8847 13.4737 34.8432 13.6631 34.7684C13.0451 34.5244 12.6076 33.9222 12.6076 33.2174Z" fill="#CD2A01"/>
<path d="M5.28811 33.2174C5.28811 32.5126 5.72561 31.9104 6.34366 31.6664C6.15413 31.5916 5.94796 31.55 5.73186 31.55C4.81092 31.55 4.06451 32.2966 4.06451 33.2174C4.06451 34.1383 4.81108 34.8847 5.73186 34.8847C5.94796 34.8847 6.15428 34.8432 6.34366 34.7684C5.72561 34.5244 5.28811 33.9222 5.28811 33.2174Z" fill="#CD2A01"/>
<path d="M38.0175 20.3094H29.2203C29.3305 20.0628 29.3924 19.79 29.3924 19.503V4.68327C29.3924 3.59006 28.503 2.70068 27.4098 2.70068H12.5902C11.497 2.70068 10.6076 3.59006 10.6076 4.68327V19.503C10.6076 19.7901 10.6695 20.0629 10.7797 20.3094H1.98258C0.889377 20.3094 0 21.1988 0 22.292V37.1117C0 38.2049 0.889377 39.0943 1.98258 39.0943H16.8022C17.8954 39.0943 18.7848 38.2049 18.7848 37.1117V22.292C18.7848 22.0049 18.7229 21.7321 18.6127 21.4856H21.3873C21.2771 21.7322 21.2152 22.0049 21.2152 22.292V37.1117C21.2152 38.2049 22.1046 39.0943 23.1978 39.0943H38.0174C39.1106 39.0943 40 38.2049 40 37.1117V22.292C40.0001 21.1988 39.1108 20.3094 38.0175 20.3094ZM11.7838 19.503V4.68327C11.7838 4.23858 12.1456 3.87686 12.5902 3.87686H27.4099C27.8546 3.87686 28.2163 4.23866 28.2163 4.68327V19.503C28.2163 19.9477 27.8545 20.3094 27.4099 20.3094H23.1978H16.8022H12.5901C12.1456 20.3094 11.7838 19.9477 11.7838 19.503ZM17.6087 22.292V37.1117C17.6087 37.5564 17.2469 37.9181 16.8023 37.9181H1.98258C1.53789 37.9181 1.17617 37.5562 1.17617 37.1116V22.292C1.17617 21.8473 1.53797 21.4856 1.98258 21.4856H12.5903H16.8024C17.247 21.4856 17.6087 21.8473 17.6087 22.292ZM38.824 37.1116C38.824 37.5563 38.4622 37.918 38.0176 37.918H23.1979C22.7532 37.918 22.3915 37.5562 22.3915 37.1116V22.292C22.3915 21.8473 22.7533 21.4856 23.1979 21.4856H27.41H38.0177C38.4623 21.4856 38.8241 21.8474 38.8241 22.292L38.824 37.1116Z" fill="black"/>
<path d="M30.6077 25.8933C28.5077 25.8933 26.7992 27.6018 26.7992 29.7019C26.7992 31.8019 28.5077 33.5104 30.6077 33.5104C32.7078 33.5104 34.4163 31.8019 34.4163 29.7019C34.4163 27.6018 32.7078 25.8933 30.6077 25.8933ZM30.6077 32.3343C29.1562 32.3343 27.9753 31.1534 27.9753 29.7019C27.9753 28.2504 29.1562 27.0694 30.6077 27.0694C32.0593 27.0694 33.2402 28.2504 33.2402 29.7019C33.2402 31.1534 32.0593 32.3343 30.6077 32.3343Z" fill="black"/>
<path d="M3.79499 13.3364H2.50983V14.5125H3.79499V13.3364Z" fill="black"/>
<path d="M8.2157 6.93359H6.93054V8.10969H8.2157V6.93359Z" fill="black"/>
<path d="M32.8987 0.905518H31.6135V2.08161H32.8987V0.905518Z" fill="black"/>
<path d="M36.9179 11.5056H35.6328V12.6817H36.9179V11.5056Z" fill="black"/>
<path d="M18.169 8.00577C18.169 6.76162 17.1568 5.74951 15.9127 5.74951C14.6685 5.74951 13.6564 6.7617 13.6564 8.00577C13.6564 9.24983 14.6686 10.262 15.9127 10.262C17.1568 10.2622 18.169 9.24999 18.169 8.00577ZM15.9126 9.086C15.3169 9.086 14.8324 8.60147 14.8324 8.00584C14.8324 7.41022 15.3169 6.92569 15.9126 6.92569C16.5083 6.92569 16.9928 7.41022 16.9928 8.00584C16.9928 8.60147 16.5083 9.086 15.9126 9.086Z" fill="black"/>
<path d="M20 14.3494C21.2441 14.3494 22.2562 13.3372 22.2562 12.0932C22.2562 10.8491 21.244 9.83691 20 9.83691C18.7559 9.83691 17.7437 10.8491 17.7437 12.0932C17.7437 13.3372 18.7558 14.3494 20 14.3494ZM20 11.0129C20.5956 11.0129 21.0801 11.4974 21.0801 12.093C21.0801 12.6886 20.5956 13.1732 20 13.1732C19.4043 13.1732 18.9198 12.6886 18.9198 12.093C18.9198 11.4974 19.4043 11.0129 20 11.0129Z" fill="black"/>
<path d="M24.0872 18.4368C25.3314 18.4368 26.3435 17.4246 26.3435 16.1806C26.3435 14.9365 25.3313 13.9243 24.0872 13.9243C22.8431 13.9243 21.831 14.9365 21.831 16.1806C21.831 17.4246 22.8431 18.4368 24.0872 18.4368ZM24.0872 15.1003C24.6829 15.1003 25.1674 15.5848 25.1674 16.1804C25.1674 16.776 24.6829 17.2606 24.0872 17.2606C23.4916 17.2606 23.0071 16.776 23.0071 16.1804C23.0071 15.5849 23.4916 15.1003 24.0872 15.1003Z" fill="black"/>
<path d="M5.73269 23.9299C4.48855 23.9299 3.47644 24.9421 3.47644 26.1862C3.47644 27.4303 4.48863 28.4424 5.73269 28.4424C6.97676 28.4424 7.98895 27.4303 7.98895 26.1862C7.98895 24.9421 6.97684 23.9299 5.73269 23.9299ZM5.73269 27.2664C5.13707 27.2664 4.65254 26.7819 4.65254 26.1863C4.65254 25.5906 5.13707 25.1061 5.73269 25.1061C6.32832 25.1061 6.81285 25.5906 6.81285 26.1863C6.81285 26.7819 6.32832 27.2664 5.73269 27.2664Z" fill="black"/>
<path d="M10.7959 26.1864C10.7959 27.4306 11.8081 28.4427 13.0522 28.4427C14.2962 28.4427 15.3084 27.4305 15.3084 26.1864C15.3084 24.9423 14.2962 23.9302 13.0522 23.9302C11.8081 23.9302 10.7959 24.9423 10.7959 26.1864ZM13.0522 25.1062C13.6479 25.1062 14.1324 25.5907 14.1324 26.1864C14.1324 26.782 13.6479 27.2665 13.0522 27.2665C12.4566 27.2665 11.9721 26.782 11.9721 26.1864C11.9721 25.5908 12.4566 25.1062 13.0522 25.1062Z" fill="black"/>
<path d="M5.73269 30.9612C4.48855 30.9612 3.47644 31.9734 3.47644 33.2175C3.47644 34.4617 4.48863 35.4738 5.73269 35.4738C6.97676 35.4738 7.98895 34.4616 7.98895 33.2175C7.98895 31.9734 6.97684 30.9612 5.73269 30.9612ZM5.73269 34.2978C5.13707 34.2978 4.65254 33.8132 4.65254 33.2176C4.65254 32.622 5.13707 32.1374 5.73269 32.1374C6.32832 32.1374 6.81285 32.622 6.81285 33.2176C6.81285 33.8132 6.32832 34.2978 5.73269 34.2978Z" fill="black"/>
<path d="M13.0522 30.9612C11.8081 30.9612 10.796 31.9734 10.796 33.2175C10.796 34.4617 11.8081 35.4738 13.0522 35.4738C14.2963 35.4738 15.3085 34.4616 15.3085 33.2175C15.3085 31.9734 14.2963 30.9612 13.0522 30.9612ZM13.0522 34.2978C12.4566 34.2978 11.9721 33.8132 11.9721 33.2176C11.9721 32.622 12.4566 32.1374 13.0522 32.1374C13.6478 32.1374 14.1324 32.622 14.1324 33.2176C14.1324 33.8132 13.6478 34.2978 13.0522 34.2978Z" fill="black"/>
</g>
<defs>
<clipPath id="clip0_1815_5208">
<rect width="40" height="40" fill="white"/>
</clipPath>
</defs>
</svg>
